<svg width="95" height="26" viewBox="0 0 95 26" fill="none" xmlns="http://www.w3.org/2000/svg">
<path fill-rule="evenodd" clip-rule="evenodd" d="M44.5431 12.7953C44.5431 19.8619 39.0307 25.5906 32.2308 25.5906C25.4309 25.5906 19.9185 19.8619 19.9185 12.7953C19.9185 5.72864 25.4309 0 32.2308 0C39.0307 0 44.5431 5.72864 44.5431 12.7953ZM41.8071 12.7953C41.8071 18.2915 37.5196 22.7472 32.2308 22.7472C26.942 22.7472 22.6546 18.2915 22.6546 12.7953C22.6546 7.7817 26.222 3.63402 30.8628 2.94418V14.217H33.5989L39.071 8.53018L37.1363 6.5196L33.5989 10.1958V2.94418C38.2396 3.63403 41.8071 7.7817 41.8071 12.7953Z" fill="black"/>
<path d="M61.4848 2.69554C60.0621 1.53543 58.3986 0.955378 56.4943 0.955378C53.0796 0.955378 50.3655 2.25197 48.3517 4.84514C46.3599 7.41557 45.3639 10.5206 45.3639 14.1601C45.3639 17.7996 46.1629 20.6885 47.7607 22.8268C49.3586 24.9423 51.7007 26 54.7869 26C57.1509 26 59.2741 25.2721 61.1565 23.8163C63.0389 22.3377 63.9801 20.4838 63.9801 18.2546C63.9801 17.2992 63.608 16.6168 62.8638 16.2073C62.1196 15.7752 61.1893 15.5591 60.073 15.5591C60.073 17.629 59.7775 19.2896 59.1865 20.5407C58.5518 21.9738 57.326 22.6903 55.5093 22.6903C53.5393 22.6903 52.0837 21.8486 51.1425 20.1654C50.2232 18.4593 49.7635 16.3552 49.7635 13.853C49.7635 12.3517 49.9386 10.8276 50.2889 9.28084C50.6391 7.73403 51.1316 6.48294 51.7663 5.52756C52.8389 4.68591 53.999 4.26509 55.2466 4.26509C56.5161 4.26509 57.4792 4.72003 58.1359 5.62992C58.7925 6.51706 59.1318 7.67716 59.1537 9.11024C59.1537 9.51968 59.1209 9.90639 59.0552 10.2703C59.5149 10.4751 60.1278 10.5774 60.8938 10.5774C61.6599 10.5774 62.3057 10.259 62.831 9.62205C63.3563 8.98513 63.619 8.1776 63.619 7.19947C63.619 5.35695 62.9076 3.85564 61.4848 2.69554Z" fill="black"/>
<path fill-rule="evenodd" clip-rule="evenodd" d="M1.01781 13.5118C1.01781 17.1514 0.678541 20.6658 0 24.0551C2.29829 25.2152 4.67319 25.7953 7.12471 25.7953C10.7144 25.7953 13.5162 24.5101 15.5299 21.9396C17.5655 19.3465 18.5833 16.1619 18.5833 12.3858C18.5833 8.6098 17.6859 5.80052 15.8911 3.95801C14.1181 2.09274 11.5243 1.1601 8.10969 1.1601C5.8114 1.1601 3.17383 1.5923 0.196993 2.45669C0.744206 6.18723 1.01781 9.87227 1.01781 13.5118ZM4.79358 12.6929C4.79358 10.077 4.89208 7.38145 5.08908 4.6063C5.98651 4.33333 7.01527 4.19685 8.17536 4.19685C10.2985 4.19685 11.8636 5.10674 12.8704 6.92651C13.7898 8.54156 14.2494 10.5888 14.2494 13.0682C14.2494 15.6387 13.8226 17.811 12.9689 19.5853C12.5312 20.5179 11.8964 21.2572 11.0646 21.8031C10.2548 22.3263 9.29167 22.5879 8.17536 22.5879C7.05904 22.5879 6.05217 22.4287 5.15474 22.1102C4.91397 18.4252 4.79358 15.2861 4.79358 12.6929Z" fill="black"/>
<path d="M79.5615 13.0452C79.5615 13.7866 79.4253 14.4863 79.1527 15.1444C78.8802 15.7942 78.5075 16.3648 78.0345 16.8563C77.5696 17.3394 77.0245 17.7226 76.3993 18.0059C75.7741 18.2891 75.1048 18.4307 74.3913 18.4307H72.6599C72.4195 18.4307 72.195 18.4765 71.9866 18.5681C71.7782 18.6598 71.5938 18.7889 71.4335 18.9555C71.2812 19.1138 71.161 19.3012 71.0728 19.5178C70.9846 19.7344 70.9405 19.9676 70.9405 20.2175V22.0044H79.0926V25.5906H67.4897V20.2175C67.4897 19.4761 67.626 18.7806 67.8985 18.1308C68.1711 17.4727 68.5398 16.9021 69.0047 16.4189C69.4777 15.9275 70.0267 15.5443 70.652 15.2694C71.2772 14.9861 71.9465 14.8445 72.6599 14.8445H74.3913C74.6318 14.8445 74.8563 14.7987 75.0647 14.7071C75.2731 14.6154 75.4534 14.4905 75.6057 14.3322C75.7661 14.1656 75.8903 13.974 75.9785 13.7574C76.0666 13.5325 76.1107 13.2951 76.1107 13.0452C76.1107 12.7953 76.0666 12.562 75.9785 12.3454C75.8903 12.1289 75.7661 11.9414 75.6057 11.7831C75.4534 11.6165 75.2731 11.4874 75.0647 11.3958C74.8563 11.3042 74.6318 11.2583 74.3913 11.2583H68.2352V7.67217H74.3913C75.1048 7.67217 75.7741 7.81378 76.3993 8.09701C77.0245 8.38024 77.5696 8.7676 78.0345 9.25908C78.5075 9.74224 78.8802 10.3087 79.1527 10.9585C79.4253 11.6082 79.5615 12.3038 79.5615 13.0452Z" fill="black"/>
<path d="M95 22.0044H93.2806V25.5906H89.8298V22.0044H81.2088L83.1326 7.67217H86.5834L85.0804 18.4307H89.8298V9.4715H93.2806V18.4307H95V22.0044Z" fill="black"/>
</svg>
